<?xml version="1.0" encoding="UTF-8" ?>
<!DOCTYPE svg PUBLIC "-//W3C//DTD SVG 1.1//EN" "http://www.w3.org/Graphics/SVG/1.1/DTD/svg11.dtd">
<svg width="400pt" height="200pt" viewBox="0 0 396 442" version="1.1" xmlns="http://www.w3.org/2000/svg">
<g id="#ffffffff">
<path fill="#ffffff" opacity="1.00" d=" M 186.94 87.03 C 197.15 83.04 209.14 83.19 218.90 88.34 C 210.77 91.73 206.53 101.79 209.06 110.09 C 211.32 119.63 222.06 126.08 231.53 123.43 C 236.38 122.52 240.18 119.07 243.15 115.33 C 247.64 126.97 247.93 139.90 244.71 151.89 C 216.12 152.17 187.51 151.87 158.92 152.05 C 154.88 139.17 155.97 124.81 161.32 112.46 C 166.39 101.28 175.42 91.61 186.94 87.03 Z" />
</g>
<g id="#020202ff">
<path fill="#000" opacity="1.00" d=" M 131.94 19.01 C 152.52 9.67 174.72 4.56 197.04 1.47 C 208.67 0.65 220.36 0.91 232.02 0.97 C 264.29 2.91 296.20 11.92 324.49 27.62 C 346.04 39.46 365.39 55.07 382.00 73.17 C 329.97 122.20 277.45 170.71 225.44 219.77 C 272.95 273.12 320.43 326.51 367.83 379.96 C 352.68 393.61 335.89 405.45 317.71 414.71 C 273.03 437.26 220.37 444.23 171.55 432.68 C 135.76 424.86 102.30 407.36 74.87 383.16 C 38.42 350.90 13.03 306.24 4.70 258.21 C -2.09 221.57 1.10 183.25 13.10 148.01 C 27.61 105.75 55.49 68.20 91.74 42.08 C 104.32 33.07 117.72 25.15 131.94 19.01 M 172.03 15.11 C 144.77 21.67 118.72 33.48 96.10 50.08 C 81.90 60.68 68.85 72.88 57.64 86.62 C 40.88 106.79 28.35 130.34 20.27 155.26 C 10.74 184.70 8.12 216.25 12.07 246.92 C 15.16 271.30 22.93 295.00 34.21 316.80 C 52.34 351.22 80.21 380.48 113.70 400.26 C 152.06 422.69 197.59 432.88 241.83 427.86 C 283.23 423.40 323.37 406.30 354.84 378.96 C 307.43 325.71 259.99 272.48 212.78 219.06 C 264.76 170.23 316.99 121.67 369.03 72.90 C 342.04 44.86 306.91 24.99 269.18 15.68 C 237.44 7.89 203.85 7.58 172.03 15.11 Z" />
<path fill="#000" opacity="1.00" d=" M 165.69 88.64 C 175.04 79.66 187.87 73.79 200.96 74.03 C 217.12 73.36 232.85 81.71 242.84 94.17 C 257.87 112.42 261.11 138.84 252.58 160.67 C 252.21 161.91 251.39 162.48 250.13 162.40 C 217.31 162.42 184.50 162.26 151.68 162.48 C 140.71 138.18 146.00 106.97 165.69 88.64 M 186.94 87.03 C 175.42 91.61 166.39 101.28 161.32 112.46 C 155.97 124.81 154.88 139.17 158.92 152.05 C 187.51 151.87 216.12 152.17 244.71 151.89 C 247.93 139.90 247.64 126.97 243.15 115.33 C 240.18 119.07 236.38 122.52 231.53 123.43 C 222.06 126.08 211.32 119.63 209.06 110.09 C 206.53 101.79 210.77 91.73 218.90 88.34 C 209.14 83.19 197.15 83.04 186.94 87.03 Z" />
</g>
<g id="#fbe051ff">
<path fill="#35a75b" opacity="1.00" d=" M 172.03 15.11 C 203.85 7.58 237.44 7.89 269.18 15.68 C 306.91 24.99 342.04 44.86 369.03 72.90 C 316.99 121.67 264.76 170.23 212.78 219.06 C 259.99 272.48 307.43 325.71 354.84 378.96 C 323.37 406.30 283.23 423.40 241.83 427.86 C 197.59 432.88 152.06 422.69 113.70 400.26 C 80.21 380.48 52.34 351.22 34.21 316.80 C 22.93 295.00 15.16 271.30 12.07 246.92 C 8.12 216.25 10.74 184.70 20.27 155.26 C 28.35 130.34 40.88 106.79 57.64 86.62 C 68.85 72.88 81.90 60.68 96.10 50.08 C 118.72 33.48 144.77 21.67 172.03 15.11 M 165.69 88.64 C 146.00 106.97 140.71 138.18 151.68 162.48 C 184.50 162.26 217.31 162.42 250.13 162.40 C 251.39 162.48 252.21 161.91 252.58 160.67 C 261.11 138.84 257.87 112.42 242.84 94.17 C 232.85 81.71 217.12 73.36 200.96 74.03 C 187.87 73.79 175.04 79.66 165.69 88.64 Z" />
</g>
</svg>
